<svg xmlns="http://www.w3.org/2000/svg" version="1.1" viewBox="0 0 21 21">
    <rect fill="white" width="21" height="21" />
    <path fill="black"
        d="M0,0h1v1h-1zM0,1h1v1h-1zM0,2h1v1h-1zM0,3h1v1h-1zM0,4h1v1h-1zM0,5h1v1h-1zM0,6h1v1h-1zM0,8h1v1h-1zM0,9h1v1h-1zM0,11h1v1h-1zM0,14h1v1h-1zM0,15h1v1h-1zM0,16h1v1h-1zM0,17h1v1h-1zM0,18h1v1h-1zM0,19h1v1h-1zM0,20h1v1h-1zM1,0h1v1h-1zM1,6h1v1h-1zM1,8h1v1h-1zM1,9h1v1h-1zM1,11h1v1h-1zM1,12h1v1h-1zM1,14h1v1h-1zM1,20h1v1h-1zM2,0h1v1h-1zM2,2h1v1h-1zM2,3h1v1h-1zM2,4h1v1h-1zM2,6h1v1h-1zM2,10h1v1h-1zM2,11h1v1h-1zM2,14h1v1h-1zM2,16h1v1h-1zM2,17h1v1h-1zM2,18h1v1h-1zM2,20h1v1h-1zM3,0h1v1h-1zM3,2h1v1h-1zM3,3h1v1h-1zM3,4h1v1h-1zM3,6h1v1h-1zM3,8h1v1h-1zM3,11h1v1h-1zM3,12h1v1h-1zM3,14h1v1h-1zM3,16h1v1h-1zM3,17h1v1h-1zM3,18h1v1h-1zM3,20h1v1h-1zM4,0h1v1h-1zM4,2h1v1h-1zM4,3h1v1h-1zM4,4h1v1h-1zM4,6h1v1h-1zM4,9h1v1h-1zM4,12h1v1h-1zM4,14h1v1h-1zM4,16h1v1h-1zM4,17h1v1h-1zM4,18h1v1h-1zM4,20h1v1h-1zM5,0h1v1h-1zM5,6h1v1h-1zM5,10h1v1h-1zM5,11h1v1h-1zM5,14h1v1h-1zM5,20h1v1h-1zM6,0h1v1h-1zM6,1h1v1h-1zM6,2h1v1h-1zM6,3h1v1h-1zM6,4h1v1h-1zM6,5h1v1h-1zM6,6h1v1h-1zM6,8h1v1h-1zM6,10h1v1h-1zM6,12h1v1h-1zM6,14h1v1h-1zM6,15h1v1h-1zM6,16h1v1h-1zM6,17h1v1h-1zM6,18h1v1h-1zM6,19h1v1h-1zM6,20h1v1h-1zM7,8h1v1h-1zM7,11h1v1h-1zM8,1h1v1h-1zM8,2h1v1h-1zM8,4h1v1h-1zM8,5h1v1h-1zM8,6h1v1h-1zM8,7h1v1h-1zM8,9h1v1h-1zM8,10h1v1h-1zM8,11h1v1h-1zM8,13h1v1h-1zM8,14h1v1h-1zM8,17h1v1h-1zM8,19h1v1h-1zM8,20h1v1h-1zM9,3h1v1h-1zM9,4h1v1h-1zM9,5h1v1h-1zM9,9h1v1h-1zM9,11h1v1h-1zM9,12h1v1h-1zM9,15h1v1h-1zM9,20h1v1h-1zM10,0h1v1h-1zM10,1h1v1h-1zM10,2h1v1h-1zM10,4h1v1h-1zM10,5h1v1h-1zM10,6h1v1h-1zM10,8h1v1h-1zM10,9h1v1h-1zM10,10h1v1h-1zM10,11h1v1h-1zM10,12h1v1h-1zM10,13h1v1h-1zM10,17h1v1h-1zM10,18h1v1h-1zM11,4h1v1h-1zM11,5h1v1h-1zM11,7h1v1h-1zM11,9h1v1h-1zM11,10h1v1h-1zM11,11h1v1h-1zM11,13h1v1h-1zM11,16h1v1h-1zM11,17h1v1h-1zM12,0h1v1h-1zM12,1h1v1h-1zM12,3h1v1h-1zM12,6h1v1h-1zM12,9h1v1h-1zM12,10h1v1h-1zM12,11h1v1h-1zM12,17h1v1h-1zM13,15h1v1h-1zM13,16h1v1h-1zM13,18h1v1h-1zM13,20h1v1h-1zM14,0h1v1h-1zM14,1h1v1h-1zM14,2h1v1h-1zM14,3h1v1h-1zM14,4h1v1h-1zM14,5h1v1h-1zM14,6h1v1h-1zM14,8h1v1h-1zM14,11h1v1h-1zM14,13h1v1h-1zM14,19h1v1h-1zM14,20h1v1h-1zM15,0h1v1h-1zM15,6h1v1h-1zM15,8h1v1h-1zM15,10h1v1h-1zM15,12h1v1h-1zM15,14h1v1h-1zM15,15h1v1h-1zM15,16h1v1h-1zM15,17h1v1h-1zM15,20h1v1h-1zM16,0h1v1h-1zM16,2h1v1h-1zM16,3h1v1h-1zM16,4h1v1h-1zM16,6h1v1h-1zM16,8h1v1h-1zM16,9h1v1h-1zM16,12h1v1h-1zM16,13h1v1h-1zM16,14h1v1h-1zM16,16h1v1h-1zM16,18h1v1h-1zM16,19h1v1h-1zM17,0h1v1h-1zM17,2h1v1h-1zM17,3h1v1h-1zM17,4h1v1h-1zM17,6h1v1h-1zM17,9h1v1h-1zM17,11h1v1h-1zM17,16h1v1h-1zM17,18h1v1h-1zM18,0h1v1h-1zM18,2h1v1h-1zM18,3h1v1h-1zM18,4h1v1h-1zM18,6h1v1h-1zM18,8h1v1h-1zM18,9h1v1h-1zM18,14h1v1h-1zM18,15h1v1h-1zM18,17h1v1h-1zM18,18h1v1h-1zM18,19h1v1h-1zM19,0h1v1h-1zM19,6h1v1h-1zM19,8h1v1h-1zM19,9h1v1h-1zM19,10h1v1h-1zM19,13h1v1h-1zM19,16h1v1h-1zM19,17h1v1h-1zM20,0h1v1h-1zM20,1h1v1h-1zM20,2h1v1h-1zM20,3h1v1h-1zM20,4h1v1h-1zM20,5h1v1h-1zM20,6h1v1h-1zM20,9h1v1h-1zM20,11h1v1h-1zM20,12h1v1h-1zM20,13h1v1h-1zM20,14h1v1h-1zM20,15h1v1h-1zM20,17h1v1h-1zM20,18h1v1h-1zM20,19h1v1h-1z" />
</svg>